<?xml version="1.0" encoding="utf-8"?>
<!-- Generator: Adobe Illustrator 27.4.1, SVG Export Plug-In . SVG Version: 6.00 Build 0)  -->
<svg version="1.1" id="katman_1" xmlns="http://www.w3.org/2000/svg" xmlns:xlink="http://www.w3.org/1999/xlink" x="0px" y="0px"
	 viewBox="0 0 16 16" style="enable-background:new 0 0 16 16;" xml:space="preserve">
<style type="text/css">
	.st0{fill:#00A237;}
	.st1{fill:#007F37;}
	.st2{fill:#FFFFFF;}
	.st3{fill:#006837;}
</style>
<g>
	<path class="st0" d="M11.46,12.72l-1.74,1.43l-0.01,0.01l-0.56-0.68l-1.3-1.59c0.05,0,0.1,0,0.15,0c0.69,0,1.31-0.31,1.72-0.81
		V10.6l0.19,0.23l1.15,1.4L11.46,12.72z"/>
	<path class="st1" d="M9.72,6.05C9.2,5.8,8.62,5.66,8,5.66c-2.21,0-3.99,1.79-3.99,3.99S5.79,13.65,8,13.65
		c0.4,0,0.79-0.06,1.15-0.17c0.2-0.06,0.39-0.13,0.57-0.22c0.52-0.25,0.97-0.6,1.33-1.04c0.58-0.69,0.93-1.59,0.93-2.57
		C11.99,8.06,11.07,6.69,9.72,6.05z M9.72,11.09C9.31,11.58,8.69,11.9,8,11.9c-0.05,0-0.1,0-0.15,0c-1.17-0.08-2.09-1.05-2.09-2.24
		c0-0.1,0.01-0.19,0.02-0.29c0.11-0.84,0.68-1.53,1.45-1.82C7.46,7.46,7.73,7.41,8,7.41c0.69,0,1.31,0.31,1.72,0.81V11.09z"/>
	<path class="st2" d="M10.24,9.65c0,0.43-0.12,0.83-0.33,1.17C9.86,10.92,9.79,11,9.72,11.09V8.22C10.05,8.61,10.24,9.11,10.24,9.65
		z"/>
	<path class="st3" d="M11.99,1.84V11.9c0,1.25-1.02,2.27-2.27,2.27h0V4.1C9.72,2.85,10.74,1.84,11.99,1.84L11.99,1.84z"/>
</g>
</svg>
