<?xml version="1.0" encoding="utf-8"?>
<!-- Generator: Adobe Illustrator 27.4.1, SVG Export Plug-In . SVG Version: 6.00 Build 0)  -->
<svg version="1.1" id="katman_1" xmlns="http://www.w3.org/2000/svg" xmlns:xlink="http://www.w3.org/1999/xlink" x="0px" y="0px"
	 viewBox="0 0 16 16" style="enable-background:new 0 0 16 16;" xml:space="preserve">
<style type="text/css">
	.st0{fill:#FF2E2E;}
	.st1{fill:#FF6C6C;}
	.st2{fill:#FFFFFF;}
	.st3{fill:#FF4444;}
</style>
<g>
	<path class="st0" d="M11.5,12.7l-1.7,1.4l0,0l-0.6-0.7l-1.3-1.6c0.1,0,0.1,0,0.2,0c0.7,0,1.3-0.3,1.7-0.8v-0.5l0.2,0.2l1.1,1.4
		L11.5,12.7z"/>
	<path class="st1" d="M9.7,6.1C9.2,5.8,8.6,5.7,8,5.7c-2.2,0-4,1.8-4,4s1.8,4,4,4c0.4,0,0.8-0.1,1.1-0.2c0.2-0.1,0.4-0.1,0.6-0.2
		c0.5-0.2,1-0.6,1.3-1c0.6-0.7,0.9-1.6,0.9-2.6C12,8.1,11.1,6.7,9.7,6.1z M9.7,11.1c-0.4,0.5-1,0.8-1.7,0.8c-0.1,0-0.1,0-0.2,0
		c-1.2-0.1-2.1-1.1-2.1-2.2c0-0.1,0-0.2,0-0.3c0.1-0.8,0.7-1.5,1.5-1.8C7.5,7.5,7.7,7.4,8,7.4c0.7,0,1.3,0.3,1.7,0.8V11.1z"/>
	<path class="st2" d="M10.2,9.6c0,0.4-0.1,0.8-0.3,1.2c-0.1,0.1-0.1,0.2-0.2,0.3V8.2C10.1,8.6,10.2,9.1,10.2,9.6z"/>
	<path class="st3" d="M12,1.8v10.1c0,1.2-1,2.3-2.3,2.3l0,0V4.1C9.7,2.8,10.7,1.8,12,1.8L12,1.8z"/>
</g>
</svg>
