<svg width="78" height="74" viewBox="0 0 78 74" fill="none" xmlns="http://www.w3.org/2000/svg">
<path d="M43.543 39.7678L38.2533 45.0575V25.9872H31.7469V45.0575L26.4572 39.7678L21.855 44.3678L31.1657 53.6785C31.6692 54.1821 32.2669 54.5816 32.9249 54.8542C33.5828 55.1267 34.2879 55.267 35.0001 55.267C35.7122 55.267 36.4174 55.1267 37.0753 54.8542C37.7333 54.5816 38.331 54.1821 38.8345 53.6785L48.1452 44.3678L43.543 39.7678Z" fill="white"/>
<circle cx="35" cy="39" r="35" fill="white" fill-opacity="0.25"/>
<rect x="35" width="43" height="20" rx="3" fill="#FF3D00"/>
<path d="M44.9102 14H47.8223C48.4277 14 48.9473 13.9023 49.3809 13.707C49.8184 13.5078 50.1543 13.2285 50.3887 12.8691C50.627 12.5059 50.7461 12.0781 50.7461 11.5859V11.5742C50.7461 11.2148 50.6621 10.8887 50.4941 10.5957C50.3301 10.3027 50.1016 10.0645 49.8086 9.88086C49.5195 9.69727 49.1875 9.5918 48.8125 9.56445V9.45898C49.1016 9.41602 49.3613 9.30859 49.5918 9.13672C49.8223 8.96484 50.0039 8.75 50.1367 8.49219C50.2734 8.23438 50.3418 7.95703 50.3418 7.66016V7.64844C50.3418 7.21484 50.2363 6.8418 50.0254 6.5293C49.8184 6.21289 49.5195 5.9707 49.1289 5.80273C48.7422 5.63086 48.2734 5.54492 47.7227 5.54492H44.9102V6.85742H47.2715C47.6934 6.85742 48.0195 6.95508 48.25 7.15039C48.4844 7.3418 48.6016 7.60938 48.6016 7.95312V7.96484C48.6016 8.3125 48.4746 8.58203 48.2207 8.77344C47.9668 8.96484 47.6016 9.06055 47.125 9.06055H44.9102V10.2266H47.3301C47.6777 10.2266 47.9707 10.2734 48.209 10.3672C48.4512 10.457 48.6328 10.5918 48.7539 10.7715C48.8789 10.9512 48.9414 11.1719 48.9414 11.4336V11.4453C48.9414 11.8477 48.8066 12.1543 48.5371 12.3652C48.2715 12.5762 47.8828 12.6816 47.3711 12.6816H44.9102V14ZM44.0254 14H45.7949V5.54492H44.0254V14ZM55.0117 14.1348C55.4844 14.1348 55.8926 14.0762 56.2363 13.959C56.584 13.8379 56.873 13.6816 57.1035 13.4902C57.3379 13.2988 57.5215 13.0938 57.6543 12.875C57.7871 12.6523 57.8789 12.4395 57.9297 12.2363L57.9414 12.1777H56.3477L56.3301 12.2129C56.291 12.2949 56.2168 12.3867 56.1074 12.4883C56.002 12.5859 55.8613 12.6719 55.6855 12.7461C55.5098 12.8203 55.2969 12.8574 55.0469 12.8574C54.7383 12.8574 54.4727 12.7891 54.25 12.6523C54.0273 12.5156 53.8555 12.3184 53.7344 12.0605C53.6133 11.8027 53.5527 11.4922 53.5527 11.1289V10.4375C53.5527 10.0625 53.6133 9.74609 53.7344 9.48828C53.8594 9.22656 54.0273 9.0293 54.2383 8.89648C54.4531 8.75977 54.6973 8.69141 54.9707 8.69141C55.248 8.69141 55.4902 8.75781 55.6973 8.89062C55.9082 9.01953 56.0723 9.21289 56.1895 9.4707C56.3105 9.72852 56.3711 10.0508 56.3711 10.4375V11.123L57.1738 10.1094H52.7148V11.1816H57.9941V10.6484C57.9941 9.99609 57.8711 9.42773 57.625 8.94336C57.3789 8.45898 57.0273 8.08203 56.5703 7.8125C56.1133 7.54297 55.5703 7.4082 54.9414 7.4082C54.3164 7.4082 53.7715 7.54688 53.3066 7.82422C52.8457 8.10156 52.4883 8.49219 52.2344 8.99609C51.9844 9.5 51.8594 10.0938 51.8594 10.7773V10.7832C51.8594 11.4746 51.9863 12.0703 52.2402 12.5703C52.4941 13.0703 52.8555 13.457 53.3242 13.7305C53.7969 14 54.3594 14.1348 55.0117 14.1348ZM62.0723 14.0234C62.2402 14.0234 62.3984 14.0156 62.5469 14C62.6953 13.9844 62.8223 13.9668 62.9277 13.9473V12.6758C62.8457 12.6836 62.7676 12.6914 62.6934 12.6992C62.623 12.7031 62.5332 12.7051 62.4238 12.7051C62.1348 12.7051 61.9238 12.6387 61.791 12.5059C61.6621 12.3691 61.5977 12.1562 61.5977 11.8672V8.83789H62.9277V7.54883H61.5977V6.00781H59.8691V7.54883H58.873V8.83789H59.8691V12.2598C59.8691 12.8848 60.041 13.3359 60.3848 13.6133C60.7285 13.8867 61.291 14.0234 62.0723 14.0234ZM66.1094 14.0996C66.3906 14.0996 66.6504 14.0625 66.8887 13.9883C67.1309 13.9102 67.3418 13.8008 67.5215 13.6602C67.7051 13.5156 67.8516 13.3438 67.9609 13.1445H68.0664V14H69.7539V9.59375C69.7539 9.13672 69.6484 8.74609 69.4375 8.42188C69.2305 8.09375 68.9277 7.84375 68.5293 7.67188C68.1309 7.49609 67.6465 7.4082 67.0762 7.4082C66.5371 7.4082 66.0625 7.48633 65.6523 7.64258C65.2461 7.79883 64.9219 8.01758 64.6797 8.29883C64.4414 8.58008 64.2988 8.91016 64.252 9.28906L64.2461 9.3418H65.8281L65.8398 9.31836C65.9062 9.12695 66.0352 8.98047 66.2266 8.87891C66.4219 8.77344 66.6738 8.7207 66.9824 8.7207C67.334 8.7207 67.6016 8.79688 67.7852 8.94922C67.9727 9.09766 68.0664 9.3125 68.0664 9.59375V11.6504C68.0664 11.877 68.0059 12.082 67.8848 12.2656C67.7637 12.4453 67.5996 12.5879 67.3926 12.6934C67.1855 12.7988 66.9492 12.8516 66.6836 12.8516C66.3867 12.8516 66.1445 12.7812 65.957 12.6406C65.7695 12.5 65.6758 12.3066 65.6758 12.0605V12.0488C65.6758 11.8145 65.7656 11.6289 65.9453 11.4922C66.125 11.3555 66.3984 11.2773 66.7656 11.2578L68.9102 11.1172V10.0742L66.5078 10.2207C65.707 10.2676 65.0898 10.457 64.6562 10.7891C64.2227 11.1172 64.0059 11.5723 64.0059 12.1543V12.166C64.0059 12.5566 64.0957 12.8984 64.2754 13.1914C64.4551 13.4805 64.7031 13.7051 65.0195 13.8652C65.3398 14.0215 65.7031 14.0996 66.1094 14.0996Z" fill="white"/>
</svg>

