<svg width="78" height="74" viewBox="0 0 78 74" fill="none" xmlns="http://www.w3.org/2000/svg">
<path d="M43.543 39.7679L38.2533 45.0576V25.9873H31.7469V45.0576L26.4572 39.7679L21.855 44.3679L31.1657 53.6786C31.6692 54.1822 32.2669 54.5817 32.9249 54.8543C33.5828 55.1269 34.2879 55.2672 35.0001 55.2672C35.7122 55.2672 36.4174 55.1269 37.0753 54.8543C37.7333 54.5817 38.331 54.1822 38.8345 53.6786L48.1452 44.3679L43.543 39.7679Z" fill="white"/>
<circle cx="35" cy="39" r="35" fill="white" fill-opacity="0.25"/>
<rect x="35" width="43" height="20" rx="3" fill="#FFB800"/>
<path d="M39.4219 14H41.2793L43.3477 7.23242H43.8633V5.54492H42.3574L39.4219 14ZM40.9922 11.9492H45.7676L45.334 10.625H41.4258L40.9922 11.9492ZM45.5156 14H47.3789L44.4375 5.54492H43.4531V7.23242L45.5156 14ZM48.7031 14H50.4141V5.08203H48.7031V14ZM52.1836 16.1387H53.8945V12.9688H54C54.1094 13.2031 54.2578 13.4043 54.4453 13.5723C54.6367 13.7402 54.8574 13.8711 55.1074 13.9648C55.3613 14.0547 55.6367 14.0996 55.9336 14.0996C56.4766 14.0996 56.9434 13.9668 57.334 13.7012C57.7246 13.4355 58.0254 13.0547 58.2363 12.5586C58.4473 12.0625 58.5527 11.4688 58.5527 10.7773V10.7656C58.5527 10.0781 58.4453 9.48828 58.2305 8.99609C58.0195 8.5 57.7188 8.11719 57.3281 7.84766C56.9375 7.57812 56.4727 7.44336 55.9336 7.44336C55.6289 7.44336 55.3516 7.48828 55.1016 7.57812C54.8516 7.66406 54.6328 7.78906 54.4453 7.95312C54.2617 8.11719 54.1133 8.31445 54 8.54492H53.8945V7.54883H52.1836V16.1387ZM55.3477 12.6816C55.0508 12.6816 54.791 12.6055 54.5684 12.4531C54.3496 12.3008 54.1797 12.082 54.0586 11.7969C53.9375 11.5078 53.877 11.168 53.877 10.7773V10.7656C53.877 10.3672 53.9355 10.0273 54.0527 9.74609C54.1738 9.46094 54.3438 9.24219 54.5625 9.08984C54.7852 8.9375 55.0469 8.86133 55.3477 8.86133C55.6523 8.86133 55.9121 8.9375 56.127 9.08984C56.3457 9.24219 56.5137 9.46094 56.6309 9.74609C56.752 10.0312 56.8125 10.3711 56.8125 10.7656V10.7773C56.8125 11.1719 56.752 11.5117 56.6309 11.7969C56.5137 12.082 56.3457 12.3008 56.127 12.4531C55.9121 12.6055 55.6523 12.6816 55.3477 12.6816ZM60.0117 14H61.7227V10.2676C61.7227 9.97461 61.7734 9.7207 61.875 9.50586C61.9805 9.29102 62.127 9.125 62.3145 9.00781C62.5059 8.88672 62.7324 8.82617 62.9941 8.82617C63.4004 8.82617 63.6992 8.94336 63.8906 9.17773C64.082 9.41211 64.1777 9.75781 64.1777 10.2148V14H65.8887V9.82812C65.8887 9.3125 65.8027 8.875 65.6309 8.51562C65.4629 8.15625 65.2148 7.88281 64.8867 7.69531C64.5625 7.50391 64.1602 7.4082 63.6797 7.4082C63.2188 7.4082 62.832 7.50977 62.5195 7.71289C62.207 7.91602 61.9766 8.19336 61.8281 8.54492H61.7227V5.08203H60.0117V14ZM69.3047 14.0996C69.5859 14.0996 69.8457 14.0625 70.084 13.9883C70.3262 13.9102 70.5371 13.8008 70.7168 13.6602C70.9004 13.5156 71.0469 13.3438 71.1562 13.1445H71.2617V14H72.9492V9.59375C72.9492 9.13672 72.8438 8.74609 72.6328 8.42188C72.4258 8.09375 72.123 7.84375 71.7246 7.67188C71.3262 7.49609 70.8418 7.4082 70.2715 7.4082C69.7324 7.4082 69.2578 7.48633 68.8477 7.64258C68.4414 7.79883 68.1172 8.01758 67.875 8.29883C67.6367 8.58008 67.4941 8.91016 67.4473 9.28906L67.4414 9.3418H69.0234L69.0352 9.31836C69.1016 9.12695 69.2305 8.98047 69.4219 8.87891C69.6172 8.77344 69.8691 8.7207 70.1777 8.7207C70.5293 8.7207 70.7969 8.79688 70.9805 8.94922C71.168 9.09766 71.2617 9.3125 71.2617 9.59375V11.6504C71.2617 11.877 71.2012 12.082 71.0801 12.2656C70.959 12.4453 70.7949 12.5879 70.5879 12.6934C70.3809 12.7988 70.1445 12.8516 69.8789 12.8516C69.582 12.8516 69.3398 12.7812 69.1523 12.6406C68.9648 12.5 68.8711 12.3066 68.8711 12.0605V12.0488C68.8711 11.8145 68.9609 11.6289 69.1406 11.4922C69.3203 11.3555 69.5938 11.2773 69.9609 11.2578L72.1055 11.1172V10.0742L69.7031 10.2207C68.9023 10.2676 68.2852 10.457 67.8516 10.7891C67.418 11.1172 67.2012 11.5723 67.2012 12.1543V12.166C67.2012 12.5566 67.291 12.8984 67.4707 13.1914C67.6504 13.4805 67.8984 13.7051 68.2148 13.8652C68.5352 14.0215 68.8984 14.0996 69.3047 14.0996Z" fill="white"/>
</svg>
