<?xml version="1.0" encoding="utf-8"?>
<!-- Generator: Adobe Illustrator 27.4.1, SVG Export Plug-In . SVG Version: 6.00 Build 0)  -->
<svg version="1.1" id="Layer_3" xmlns="http://www.w3.org/2000/svg" xmlns:xlink="http://www.w3.org/1999/xlink" x="0px" y="0px"
	 viewBox="0 0 106 42" style="enable-background:new 0 0 106 42;" xml:space="preserve">
<style type="text/css">
	.st0{fill:#FFFFFF;}
</style>
<g>
	<path class="st0" d="M64.5,36.7l-5.8,4.8l0,0l-1.9-2.3L52.5,34c0.2,0,0.3,0,0.5,0c2.3,0,4.4-1,5.7-2.7v-1.6l0.6,0.8l3.8,4.6
		L64.5,36.7z"/>
	<path class="st0" d="M58.7,14.5c-1.7-0.8-3.7-1.3-5.7-1.3c-7.3,0-13.3,6-13.3,13.3s6,13.3,13.3,13.3c1.3,0,2.6-0.2,3.8-0.6
		c0.7-0.2,1.3-0.4,1.9-0.7c1.7-0.8,3.2-2,4.4-3.4c1.9-2.3,3.1-5.3,3.1-8.6C66.3,21.2,63.2,16.6,58.7,14.5z M58.7,31.3
		C57.4,32.9,55.3,34,53,34c-0.2,0-0.3,0-0.5,0c-3.9-0.3-7-3.5-7-7.5c0-0.3,0-0.6,0.1-1c0.4-2.8,2.3-5.1,4.8-6
		c0.8-0.3,1.7-0.5,2.6-0.5c2.3,0,4.4,1,5.7,2.7V31.3z"/>
	<path class="st0" d="M60.5,26.5c0,1.4-0.4,2.8-1.1,3.9c-0.2,0.3-0.4,0.6-0.6,0.9v-9.5C59.8,23,60.5,24.7,60.5,26.5z"/>
	<path class="st0" d="M66.3,0.5V34c0,4.2-3.4,7.6-7.6,7.6h0V8C58.7,3.9,62.1,0.5,66.3,0.5L66.3,0.5z"/>
</g>
</svg>
